<svg width="22" height="16" viewBox="0 0 22 16" fill="none" xmlns="http://www.w3.org/2000/svg">
<path d="M21.3018 14.9806C21.0417 15.1268 20.7342 15.1637 20.4469 15.0832C20.1597 15.0027 19.9161 14.8113 19.7699 14.5513L13.3443 3.125H12.1256V3.5C12.1256 3.79837 12.007 4.08452 11.796 4.2955C11.5851 4.50647 11.2989 4.625 11.0006 4.625C10.7022 4.625 10.416 4.50647 10.2051 4.2955C9.99408 4.08452 9.87555 3.79837 9.87555 3.5V3.125H8.6568L2.23118 14.5513C2.15961 14.6816 2.06292 14.7964 1.9467 14.8891C1.83048 14.9818 1.69704 15.0506 1.55408 15.0914C1.41113 15.1322 1.2615 15.1443 1.11385 15.127C0.96619 15.1096 0.823438 15.0632 0.69384 14.9903C0.564243 14.9175 0.450371 14.8197 0.358806 14.7025C0.267241 14.5854 0.1998 14.4513 0.160382 14.308C0.120963 14.1646 0.110348 14.0149 0.129151 13.8674C0.147954 13.7199 0.195801 13.5776 0.269928 13.4487L6.0768 3.125H1.25055C0.952184 3.125 0.666036 3.00647 0.455058 2.7955C0.244079 2.58452 0.125553 2.29837 0.125553 2C0.125553 1.70163 0.244079 1.41548 0.455058 1.2045C0.666036 0.993526 0.952184 0.875 1.25055 0.875H20.7506C21.0489 0.875 21.3351 0.993526 21.546 1.2045C21.757 1.41548 21.8756 1.70163 21.8756 2C21.8756 2.29837 21.757 2.58452 21.546 2.7955C21.3351 3.00647 21.0489 3.125 20.7506 3.125H15.9243L21.7312 13.4487C21.8774 13.7088 21.9143 14.0163 21.8337 14.3036C21.7532 14.5909 21.5619 14.8344 21.3018 14.9806ZM11.0006 6.125C10.7022 6.125 10.416 6.24353 10.2051 6.4545C9.99408 6.66548 9.87555 6.95163 9.87555 7.25V8.75C9.87555 9.04837 9.99408 9.33452 10.2051 9.54549C10.416 9.75647 10.7022 9.875 11.0006 9.875C11.2989 9.875 11.5851 9.75647 11.796 9.54549C12.007 9.33452 12.1256 9.04837 12.1256 8.75V7.25C12.1256 6.95163 12.007 6.66548 11.796 6.4545C11.5851 6.24353 11.2989 6.125 11.0006 6.125ZM11.0006 11.375C10.7022 11.375 10.416 11.4935 10.2051 11.7045C9.99408 11.9155 9.87555 12.2016 9.87555 12.5V14C9.87555 14.2984 9.99408 14.5845 10.2051 14.7955C10.416 15.0065 10.7022 15.125 11.0006 15.125C11.2989 15.125 11.5851 15.0065 11.796 14.7955C12.007 14.5845 12.1256 14.2984 12.1256 14V12.5C12.1256 12.2016 12.007 11.9155 11.796 11.7045C11.5851 11.4935 11.2989 11.375 11.0006 11.375Z" fill="#F9FAFB"/>
</svg>
