<svg width="48" height="48" viewBox="0 0 48 48" fill="none" xmlns="http://www.w3.org/2000/svg">
<rect width="48" height="48" rx="4" fill="white" fill-opacity="0.2"/>
<path d="M33.3744 24.0003C33.3744 24.2987 33.2559 24.5848 33.0449 24.7958C32.8339 25.0068 32.5478 25.1253 32.2494 25.1253H18.4682L23.2982 29.9543C23.5095 30.1657 23.6282 30.4523 23.6282 30.7512C23.6282 31.0501 23.5095 31.3367 23.2982 31.5481C23.0868 31.7594 22.8002 31.8782 22.5013 31.8782C22.2024 31.8782 21.9158 31.7594 21.7044 31.5481L14.9544 24.7981C14.8495 24.6936 14.7663 24.5694 14.7095 24.4326C14.6528 24.2959 14.6235 24.1493 14.6235 24.0012C14.6235 23.8532 14.6528 23.7065 14.7095 23.5698C14.7663 23.4331 14.8495 23.3089 14.9544 23.2043L21.7044 16.4543C21.8091 16.3497 21.9333 16.2667 22.07 16.2101C22.2068 16.1534 22.3533 16.1243 22.5013 16.1243C22.6493 16.1243 22.7958 16.1534 22.9326 16.2101C23.0693 16.2667 23.1935 16.3497 23.2982 16.4543C23.4028 16.559 23.4858 16.6832 23.5425 16.82C23.5991 16.9567 23.6282 17.1032 23.6282 17.2512C23.6282 17.3992 23.5991 17.5458 23.5425 17.6825C23.4858 17.8192 23.4028 17.9434 23.2982 18.0481L18.4682 22.8753H32.2494C32.5478 22.8753 32.8339 22.9938 33.0449 23.2048C33.2559 23.4158 33.3744 23.7019 33.3744 24.0003Z" fill="#344054"/>
</svg>
