<svg width="14" height="20" viewBox="0 0 14 20" fill="none" xmlns="http://www.w3.org/2000/svg">
<path d="M6.0625 7.5V13.75C6.0625 13.9986 5.96373 14.2371 5.78791 14.4129C5.6121 14.5887 5.37364 14.6875 5.125 14.6875C4.87636 14.6875 4.6379 14.5887 4.46209 14.4129C4.28627 14.2371 4.1875 13.9986 4.1875 13.75V7.5C4.1875 7.25136 4.28627 7.0129 4.46209 6.83709C4.6379 6.66127 4.87636 6.5625 5.125 6.5625C5.37364 6.5625 5.6121 6.66127 5.78791 6.83709C5.96373 7.0129 6.0625 7.25136 6.0625 7.5ZM7.9375 7.5V13.75C7.9375 13.9986 8.03627 14.2371 8.21209 14.4129C8.3879 14.5887 8.62636 14.6875 8.875 14.6875C9.12364 14.6875 9.3621 14.5887 9.53791 14.4129C9.71373 14.2371 9.8125 13.9986 9.8125 13.75V7.5C9.8125 7.25136 9.71373 7.0129 9.53791 6.83709C9.3621 6.66127 9.12364 6.5625 8.875 6.5625C8.62636 6.5625 8.3879 6.66127 8.21209 6.83709C8.03627 7.0129 7.9375 7.25136 7.9375 7.5ZM13.5625 5V16.25C13.5625 16.6644 13.3979 17.0618 13.1049 17.3549C12.8118 17.6479 12.4144 17.8125 12 17.8125H11.0625V18.75C11.0625 18.9986 10.9637 19.2371 10.7879 19.4129C10.6121 19.5887 10.3736 19.6875 10.125 19.6875C9.87636 19.6875 9.6379 19.5887 9.46209 19.4129C9.28627 19.2371 9.1875 18.9986 9.1875 18.75V17.8125H4.8125V18.75C4.8125 18.9986 4.71373 19.2371 4.53791 19.4129C4.3621 19.5887 4.12364 19.6875 3.875 19.6875C3.62636 19.6875 3.3879 19.5887 3.21209 19.4129C3.03627 19.2371 2.9375 18.9986 2.9375 18.75V17.8125H2C1.5856 17.8125 1.18817 17.6479 0.895146 17.3549C0.60212 17.0618 0.4375 16.6644 0.4375 16.25V5C0.4375 4.5856 0.60212 4.18817 0.895146 3.89515C1.18817 3.60212 1.5856 3.4375 2 3.4375H3.5625V2.1875C3.5625 1.60734 3.79297 1.05094 4.2032 0.640704C4.61344 0.230468 5.16984 0 5.75 0L8.25 0C8.83016 0 9.38656 0.230468 9.7968 0.640704C10.207 1.05094 10.4375 1.60734 10.4375 2.1875V3.4375H12C12.4144 3.4375 12.8118 3.60212 13.1049 3.89515C13.3979 4.18817 13.5625 4.5856 13.5625 5ZM5.4375 3.4375H8.5625V2.1875C8.5625 2.10462 8.52958 2.02513 8.47097 1.96653C8.41237 1.90792 8.33288 1.875 8.25 1.875H5.75C5.66712 1.875 5.58763 1.90792 5.52903 1.96653C5.47042 2.02513 5.4375 2.10462 5.4375 2.1875V3.4375ZM11.6875 5.3125H2.3125V15.9375H11.6875V5.3125Z" fill="#475367"/>
</svg>
