<svg width="20" height="20" viewBox="0 0 20 20" fill="none" xmlns="http://www.w3.org/2000/svg">
<path d="M10 1.5625C8.33122 1.5625 6.69992 2.05735 5.31238 2.98448C3.92484 3.9116 2.84338 5.22936 2.20477 6.77111C1.56616 8.31286 1.39907 10.0094 1.72463 11.6461C2.05019 13.2828 2.85379 14.7862 4.03379 15.9662C5.2138 17.1462 6.71721 17.9498 8.35393 18.2754C9.99064 18.6009 11.6871 18.4338 13.2289 17.7952C14.7706 17.1566 16.0884 16.0752 17.0155 14.6876C17.9427 13.3001 18.4375 11.6688 18.4375 10C18.435 7.763 17.5453 5.61833 15.9635 4.03653C14.3817 2.45473 12.237 1.56498 10 1.5625ZM10 16.5625C8.70206 16.5625 7.43327 16.1776 6.35407 15.4565C5.27488 14.7354 4.43374 13.7105 3.93704 12.5114C3.44034 11.3122 3.31038 9.99272 3.5636 8.71972C3.81682 7.44672 4.44183 6.27739 5.35962 5.35961C6.2774 4.44183 7.44672 3.81681 8.71972 3.5636C9.99272 3.31038 11.3122 3.44034 12.5114 3.93704C13.7105 4.43374 14.7354 5.27487 15.4565 6.35407C16.1776 7.43327 16.5625 8.70206 16.5625 10C16.5606 11.7399 15.8686 13.408 14.6383 14.6383C13.408 15.8686 11.7399 16.5606 10 16.5625ZM13.7883 10.5867C13.9644 10.7628 14.0633 11.0017 14.0633 11.2508C14.0633 11.4999 13.9644 11.7387 13.7883 11.9148C13.6122 12.091 13.3733 12.1899 13.1242 12.1899C12.8752 12.1899 12.6363 12.091 12.4602 11.9148L10 9.45312L7.53828 11.9133C7.36216 12.0894 7.12329 12.1883 6.87422 12.1883C6.62515 12.1883 6.38628 12.0894 6.21016 11.9133C6.03404 11.7372 5.9351 11.4983 5.9351 11.2492C5.9351 11.0001 6.03404 10.7613 6.21016 10.5852L9.33516 7.46016C9.42226 7.37276 9.52575 7.30341 9.6397 7.25609C9.75366 7.20877 9.87583 7.18442 9.99922 7.18442C10.1226 7.18442 10.2448 7.20877 10.3587 7.25609C10.4727 7.30341 10.5762 7.37276 10.6633 7.46016L13.7883 10.5867Z" fill="#98A2B3"/>
</svg>
