<svg width="20" height="20" viewBox="0 0 20 20" fill="none" xmlns="http://www.w3.org/2000/svg">
<path d="M10 1.5625C8.33122 1.5625 6.69992 2.05735 5.31238 2.98448C3.92484 3.9116 2.84338 5.22936 2.20477 6.77111C1.56616 8.31286 1.39907 10.0094 1.72463 11.6461C2.05019 13.2828 2.85379 14.7862 4.03379 15.9662C5.2138 17.1462 6.71721 17.9498 8.35393 18.2754C9.99064 18.6009 11.6871 18.4338 13.2289 17.7952C14.7706 17.1566 16.0884 16.0752 17.0155 14.6876C17.9427 13.3001 18.4375 11.6688 18.4375 10C18.435 7.763 17.5453 5.61833 15.9635 4.03653C14.3817 2.45473 12.237 1.56498 10 1.5625ZM10 16.5625C8.70206 16.5625 7.43327 16.1776 6.35407 15.4565C5.27488 14.7354 4.43374 13.7105 3.93704 12.5114C3.44034 11.3122 3.31038 9.99272 3.5636 8.71972C3.81682 7.44672 4.44183 6.27739 5.35962 5.35961C6.2774 4.44183 7.44672 3.81681 8.71972 3.5636C9.99272 3.31038 11.3122 3.44034 12.5114 3.93704C13.7105 4.43374 14.7354 5.27487 15.4565 6.35407C16.1776 7.43327 16.5625 8.70206 16.5625 10C16.5606 11.7399 15.8686 13.408 14.6383 14.6383C13.408 15.8686 11.7399 16.5606 10 16.5625ZM13.7883 8.08672C13.8757 8.17382 13.945 8.27731 13.9923 8.39126C14.0397 8.50522 14.064 8.62739 14.064 8.75078C14.064 8.87417 14.0397 8.99634 13.9923 9.1103C13.945 9.22425 13.8757 9.32775 13.7883 9.41484L10.6633 12.5398C10.5762 12.6272 10.4727 12.6966 10.3587 12.7439C10.2448 12.7912 10.1226 12.8156 9.99922 12.8156C9.87583 12.8156 9.75366 12.7912 9.6397 12.7439C9.52575 12.6966 9.42226 12.6272 9.33516 12.5398L6.21016 9.41484C6.03404 9.23872 5.9351 8.99985 5.9351 8.75078C5.9351 8.50171 6.03404 8.26284 6.21016 8.08672C6.38628 7.9106 6.62515 7.81166 6.87422 7.81166C7.12329 7.81165 7.36216 7.9106 7.53828 8.08672L10 10.5469L12.4617 8.08438C12.5489 7.99736 12.6525 7.9284 12.7664 7.88142C12.8803 7.83444 13.0023 7.81037 13.1255 7.81059C13.2487 7.81081 13.3706 7.83531 13.4844 7.88269C13.5981 7.93007 13.7014 7.9994 13.7883 8.08672Z" fill="#98A2B3"/>
</svg>
