<svg width="22" height="13" viewBox="0 0 22 13" fill="none" xmlns="http://www.w3.org/2000/svg">
<path d="M9.248 4.08C8.96 3.52533 8.56 3.10933 8.048 2.832C7.536 2.544 6.944 2.4 6.272 2.4C5.536 2.4 4.88 2.56533 4.304 2.896C3.728 3.22667 3.27467 3.696 2.944 4.304C2.624 4.912 2.464 5.616 2.464 6.416C2.464 7.216 2.624 7.92533 2.944 8.544C3.27467 9.152 3.728 9.62133 4.304 9.952C4.88 10.2827 5.536 10.448 6.272 10.448C7.264 10.448 8.06933 10.1707 8.688 9.616C9.30667 9.06133 9.68533 8.30933 9.824 7.36H5.648V5.904H11.776V7.328C11.6587 8.192 11.3493 8.98667 10.848 9.712C10.3573 10.4373 9.712 11.0187 8.912 11.456C8.12267 11.8827 7.24267 12.096 6.272 12.096C5.22667 12.096 4.272 11.856 3.408 11.376C2.544 10.8853 1.856 10.208 1.344 9.344C0.842667 8.48 0.592 7.504 0.592 6.416C0.592 5.328 0.842667 4.352 1.344 3.488C1.856 2.624 2.544 1.952 3.408 1.472C4.28267 0.981332 5.23733 0.735999 6.272 0.735999C7.456 0.735999 8.50667 1.02933 9.424 1.616C10.352 2.192 11.024 3.01333 11.44 4.08H9.248ZM17.399 12.144C16.567 12.144 15.815 11.9573 15.143 11.584C14.471 11.2 13.943 10.6667 13.559 9.984C13.175 9.29067 12.983 8.49067 12.983 7.584C12.983 6.688 13.1803 5.89333 13.575 5.2C13.9697 4.50667 14.5083 3.97333 15.191 3.6C15.8737 3.22667 16.6363 3.04 17.479 3.04C18.3217 3.04 19.0843 3.22667 19.767 3.6C20.4497 3.97333 20.9883 4.50667 21.383 5.2C21.7777 5.89333 21.975 6.688 21.975 7.584C21.975 8.48 21.7723 9.27467 21.367 9.968C20.9617 10.6613 20.407 11.2 19.703 11.584C19.0097 11.9573 18.2417 12.144 17.399 12.144ZM17.399 10.56C17.8683 10.56 18.3057 10.448 18.711 10.224C19.127 10 19.463 9.664 19.719 9.216C19.975 8.768 20.103 8.224 20.103 7.584C20.103 6.944 19.9803 6.40533 19.735 5.968C19.4897 5.52 19.1643 5.184 18.759 4.96C18.3537 4.736 17.9163 4.624 17.447 4.624C16.9777 4.624 16.5403 4.736 16.135 4.96C15.7403 5.184 15.4257 5.52 15.191 5.968C14.9563 6.40533 14.839 6.944 14.839 7.584C14.839 8.53333 15.079 9.26933 15.559 9.792C16.0497 10.304 16.663 10.56 17.399 10.56Z" fill="white"/>
</svg>
